<?xml version="1.0" standalone="no"?>
<!DOCTYPE svg PUBLIC "-//W3C//DTD SVG 20010904//EN"
 "http://www.w3.org/TR/2001/REC-SVG-20010904/DTD/svg10.dtd">
<svg version="1.0" xmlns="http://www.w3.org/2000/svg"
 width="512.000000pt" height="512.000000pt" viewBox="0 0 512.000000 512.000000"
 preserveAspectRatio="xMidYMid meet">
<metadata>
Created by potrace 1.14, written by Peter Selinger 2001-2017
</metadata>
<g transform="translate(0.000000,512.000000) scale(0.100000,-0.100000)"
fill="#000000" stroke="none">
<path d="M3352 4443 c-54 -26 -56 -34 -57 -335 -1 -318 2 -334 68 -355 31 -11
44 -10 71 1 58 24 62 44 60 337 -2 330 1 302 -29 332 -31 30 -75 38 -113 20z"/>
<path d="M2204 3970 c-33 -13 -54 -50 -54 -94 0 -39 7 -47 208 -248 185 -186
211 -208 240 -208 71 0 123 59 107 123 -7 25 -392 416 -423 429 -23 9 -53 8
-78 -2z"/>
<path d="M4510 3973 c-30 -10 -419 -407 -425 -433 -7 -34 9 -77 38 -101 23
-19 82 -25 106 -10 37 24 401 397 409 420 11 33 -2 82 -27 105 -20 18 -73 28
-101 19z"/>
<path d="M3368 3505 c-2 -1 -32 -5 -68 -9 -212 -20 -429 -154 -550 -339 -22
-34 -41 -65 -43 -70 -1 -4 -28 3 -59 17 -360 159 -776 146 -1118 -37 -163 -86
-322 -224 -427 -367 -60 -81 -74 -105 -123 -204 l-40 -80 -82 -2 c-492 -12
-871 -412 -854 -899 3 -60 7 -123 11 -140 9 -42 36 -137 45 -155 61 -125 85
-166 128 -220 235 -292 613 -404 967 -288 88 28 142 56 227 116 52 37 66 36
128 -3 184 -116 505 -180 759 -151 143 16 332 73 439 132 l43 23 37 -23 c276
-172 639 -185 940 -32 65 33 85 63 80 117 -4 40 -1 44 84 130 80 81 90 88 118
83 100 -21 163 112 81 172 -14 11 -13 19 7 80 12 38 24 87 28 109 10 65 14 75
34 75 10 0 32 11 47 24 25 22 28 31 29 93 3 181 -90 428 -213 563 l-23 26 37
54 c257 382 115 920 -297 1121 -54 26 -137 57 -172 64 -56 12 -194 25 -200 20z"/>
<path d="M4462 2820 c-32 -14 -56 -70 -48 -114 5 -27 16 -42 39 -56 30 -19 52
-20 310 -20 317 0 328 2 348 70 9 31 9 46 -1 70 -24 57 -40 60 -347 59 -153 0
-288 -4 -301 -9z"/>
</g>
</svg>
